<mxfile host="app.diagrams.net" modified="2024-02-06T09:37:26.519Z" agent="Mozilla/5.0 (Windows NT 10.0; Win64; x64) AppleWebKit/537.36 (KHTML, like Gecko) Chrome/121.0.0.0 Safari/537.36" etag="W8ae1WY-V7aZnVSNwfpg" version="23.1.1" type="github">
  <diagram name="Page-1" id="nKWbs3OS91l74GzX4Yga">
    <mxGraphModel dx="1674" dy="790" grid="1" gridSize="10" guides="1" tooltips="1" connect="1" arrows="1" fold="1" page="1" pageScale="1" pageWidth="850" pageHeight="1100" math="0" shadow="0">
      <root>
        <mxCell id="0" />
        <mxCell id="1" parent="0" />
        <mxCell id="LTbSsw1pKwTwMZil4mk_-3" value="" style="rounded=0;whiteSpace=wrap;html=1;" vertex="1" parent="1">
          <mxGeometry x="240" y="150" width="360" height="570" as="geometry" />
        </mxCell>
        <mxCell id="LTbSsw1pKwTwMZil4mk_-4" value="PERPUS DIGITAL" style="text;html=1;strokeColor=none;fillColor=none;align=center;verticalAlign=middle;whiteSpace=wrap;rounded=0;" vertex="1" parent="1">
          <mxGeometry x="350" y="170" width="150" height="30" as="geometry" />
        </mxCell>
        <mxCell id="LTbSsw1pKwTwMZil4mk_-5" value="Form pengunjung" style="ellipse;whiteSpace=wrap;html=1;" vertex="1" parent="1">
          <mxGeometry x="315" y="240" width="220" height="80" as="geometry" />
        </mxCell>
        <mxCell id="LTbSsw1pKwTwMZil4mk_-6" value="Pencarian buku" style="ellipse;whiteSpace=wrap;html=1;" vertex="1" parent="1">
          <mxGeometry x="315" y="350" width="220" height="80" as="geometry" />
        </mxCell>
        <mxCell id="LTbSsw1pKwTwMZil4mk_-7" value="Detail buku" style="ellipse;whiteSpace=wrap;html=1;" vertex="1" parent="1">
          <mxGeometry x="315" y="460" width="220" height="80" as="geometry" />
        </mxCell>
        <mxCell id="LTbSsw1pKwTwMZil4mk_-8" value="Laporan statistik" style="ellipse;whiteSpace=wrap;html=1;" vertex="1" parent="1">
          <mxGeometry x="315" y="570" width="220" height="80" as="geometry" />
        </mxCell>
        <mxCell id="LTbSsw1pKwTwMZil4mk_-11" value="" style="endArrow=none;html=1;rounded=0;" edge="1" parent="1">
          <mxGeometry width="50" height="50" relative="1" as="geometry">
            <mxPoint x="190" y="380" as="sourcePoint" />
            <mxPoint x="230" y="290" as="targetPoint" />
          </mxGeometry>
        </mxCell>
        <mxCell id="LTbSsw1pKwTwMZil4mk_-12" value="" style="endArrow=none;html=1;rounded=0;" edge="1" parent="1" target="LTbSsw1pKwTwMZil4mk_-5">
          <mxGeometry width="50" height="50" relative="1" as="geometry">
            <mxPoint x="230" y="290" as="sourcePoint" />
            <mxPoint x="280" y="240" as="targetPoint" />
          </mxGeometry>
        </mxCell>
        <mxCell id="LTbSsw1pKwTwMZil4mk_-13" value="" style="endArrow=none;html=1;rounded=0;entryX=0;entryY=0.5;entryDx=0;entryDy=0;" edge="1" parent="1" target="LTbSsw1pKwTwMZil4mk_-6">
          <mxGeometry width="50" height="50" relative="1" as="geometry">
            <mxPoint x="200" y="451.9230769230769" as="sourcePoint" />
            <mxPoint x="220" y="390" as="targetPoint" />
          </mxGeometry>
        </mxCell>
        <mxCell id="LTbSsw1pKwTwMZil4mk_-14" value="" style="endArrow=none;html=1;rounded=0;" edge="1" parent="1" target="LTbSsw1pKwTwMZil4mk_-7">
          <mxGeometry width="50" height="50" relative="1" as="geometry">
            <mxPoint x="200" y="496.311475409836" as="sourcePoint" />
            <mxPoint x="220" y="480" as="targetPoint" />
          </mxGeometry>
        </mxCell>
        <mxCell id="LTbSsw1pKwTwMZil4mk_-15" value="" style="endArrow=none;html=1;rounded=0;exitX=1;exitY=0.5;exitDx=0;exitDy=0;" edge="1" parent="1" source="LTbSsw1pKwTwMZil4mk_-8">
          <mxGeometry width="50" height="50" relative="1" as="geometry">
            <mxPoint x="550" y="610" as="sourcePoint" />
            <mxPoint x="650" y="540" as="targetPoint" />
          </mxGeometry>
        </mxCell>
        <mxCell id="LTbSsw1pKwTwMZil4mk_-16" value="" style="endArrow=none;html=1;rounded=0;exitX=0.977;exitY=0.613;exitDx=0;exitDy=0;exitPerimeter=0;" edge="1" parent="1" source="LTbSsw1pKwTwMZil4mk_-7">
          <mxGeometry width="50" height="50" relative="1" as="geometry">
            <mxPoint x="550" y="530" as="sourcePoint" />
            <mxPoint x="640" y="500.9097127222983" as="targetPoint" />
          </mxGeometry>
        </mxCell>
        <mxCell id="LTbSsw1pKwTwMZil4mk_-17" value="" style="endArrow=none;html=1;rounded=0;exitX=1;exitY=0.5;exitDx=0;exitDy=0;" edge="1" parent="1" source="LTbSsw1pKwTwMZil4mk_-6">
          <mxGeometry width="50" height="50" relative="1" as="geometry">
            <mxPoint x="550" y="420" as="sourcePoint" />
            <mxPoint x="640" y="449.5945945945946" as="targetPoint" />
          </mxGeometry>
        </mxCell>
        <mxCell id="LTbSsw1pKwTwMZil4mk_-18" value="" style="endArrow=none;html=1;rounded=0;" edge="1" parent="1">
          <mxGeometry width="50" height="50" relative="1" as="geometry">
            <mxPoint x="640" y="400" as="sourcePoint" />
            <mxPoint x="620" y="280" as="targetPoint" />
          </mxGeometry>
        </mxCell>
        <mxCell id="LTbSsw1pKwTwMZil4mk_-19" value="" style="endArrow=none;html=1;rounded=0;exitX=0.833;exitY=0.228;exitDx=0;exitDy=0;exitPerimeter=0;" edge="1" parent="1" source="LTbSsw1pKwTwMZil4mk_-3">
          <mxGeometry width="50" height="50" relative="1" as="geometry">
            <mxPoint x="550" y="310" as="sourcePoint" />
            <mxPoint x="620" y="280" as="targetPoint" />
          </mxGeometry>
        </mxCell>
        <mxCell id="qW5e6q90JTJuFWD5uciA-2" value="Pengunjung" style="shape=umlActor;verticalLabelPosition=bottom;verticalAlign=top;html=1;outlineConnect=0;" vertex="1" parent="1">
          <mxGeometry x="60" y="340" width="100" height="210" as="geometry" />
        </mxCell>
        <mxCell id="qW5e6q90JTJuFWD5uciA-3" value="Pustakawan" style="shape=umlActor;verticalLabelPosition=bottom;verticalAlign=top;html=1;outlineConnect=0;" vertex="1" parent="1">
          <mxGeometry x="710" y="340" width="100" height="210" as="geometry" />
        </mxCell>
      </root>
    </mxGraphModel>
  </diagram>
</mxfile>
